<svg width="258" height="91" viewBox="0 0 258 91" fill="none" xmlns="http://www.w3.org/2000/svg">
<g clip-path="url(#clip0_2524_2362)">
<style>
    .logo-text {
      font-family: Arial, sans-serif;
      font-size: 44px;
      font-weight: bold;
      fill: white;
    }
  </style>
  <text x="50%" y="50%" text-anchor="middle" dominant-baseline="central" class="logo-text">
    Elsexperiences
  </text>
<path d="M32.8717 77.5575C50.9464 77.5575 65.5989 62.905 65.5989 44.8302C65.5989 26.7555 50.9464 12.103 32.8717 12.103C14.7969 12.103 0.144409 26.7555 0.144409 44.8302C0.144409 62.905 14.7969 77.5575 32.8717 77.5575Z" fill="white"/>
<path d="M51.8019 67.0049L25.399 32.0522H19.8078V58.6276H24.2807V37.7327L48.2906 69.7097C49.5218 68.8859 50.6946 67.9815 51.8019 67.0049Z" fill="url(#paint0_linear_2524_2362)"/>
<path d="M46.7635 32.0522H42.3324V58.6387H46.7635V32.0522Z" fill="url(#paint1_linear_2524_2362)"/>
</g>
<defs>
<linearGradient id="paint0_linear_2524_2362" x1="34.9514" y1="48.1863" x2="49.8194" y2="66.9607" gradientUnits="userSpaceOnUse">
<stop stop-color="#3056D3"/>
<stop offset="1" stop-color="white" stop-opacity="0"/>
</linearGradient>
<linearGradient id="paint1_linear_2524_2362" x1="44.5481" y1="32.0522" x2="44.4738" y2="51.5767" gradientUnits="userSpaceOnUse">
<stop stop-color="#3056D3"/>
<stop offset="1" stop-color="white" stop-opacity="0"/>
</linearGradient>

</defs>
</svg>
